# xmcd
#
# Track frame offsets: 
#        150
#        26675
#        48948
#        73751
#        92308
#        116602
#        138020
#        160677
#        183299
#        205294
#        224073
#        248081
#        268757
#        292338
#        313854
#
# Disc length: 4474 seconds
#
# Revision: 0
# Processed by: cddbd v1.5.2PL0 Copyright (c) Steve Scherf et al.
# Submitted via: ExactAudioCopyFreeDBPlugin 1.0
#
DISCID=e111780f
DTITLE=群星  - DTS 巅峰煲碟皇·女人篇
DYEAR=2011
DGENRE=Acid
TTITLE0=群星 - 爱太深
TTITLE1=群星 - 红玫瑰与白玫瑰
TTITLE2=群星 - 越唱越寂寞
TTITLE3=群星 - 往事只能回味
TTITLE4=群星 - 传奇
TTITLE5=群星 - 对她好一些
TTITLE6=群星 - 问情
TTITLE7=群星 - 别用下辈子安慰我
TTITLE8=群星 - 月满西楼
TTITLE9=群星 - 别说爱你是我一厢情愿
TTITLE10=群星 - 燕衔泥
TTITLE11=群星 - 古老的故事
TTITLE12=群星 - 爱很简单
TTITLE13=群星 - 天路
TTITLE14=群星 - 错过的情人
EXTD=
EXTT0=
EXTT1=
EXTT2=
EXTT3=
EXTT4=
EXTT5=
EXTT6=
EXTT7=
EXTT8=
EXTT9=
EXTT10=
EXTT11=
EXTT12=
EXTT13=
EXTT14=
PLAYORDER=
